<?xml version="1.0" encoding="utf-8"?>
<!-- Generator: Adobe Illustrator 27.2.0, SVG Export Plug-In . SVG Version: 6.00 Build 0)  -->
<svg version="1.1" id="Layer_1" xmlns="http://www.w3.org/2000/svg" xmlns:xlink="http://www.w3.org/1999/xlink" x="0px" y="0px"
	 viewBox="0 0 428.3 165" style="enable-background:new 0 0 428.3 165;" xml:space="preserve">
<style type="text/css">
	.st0{fill:#38D200;}
	.st1{fill:#0473EA;}
	.st2{fill:#58595B;}
</style>
<g>
	<g>
		<path class="st0" d="M84,128.2l-39.5-25.7c0,0-5-2.8-6.1-8.2c-1.6-7.5,3.7-13.8,3.7-13.8l51.3,33.4c4,2.6,5,7.8,2.5,11.8
			C93.2,129.8,87.9,130.7,84,128.2"/>
		<path class="st1" d="M46.6,75c0,0-6-3.7-6-12.1s6-12,6-12l21.6-14.1c4-2.6,9.3-1.4,11.8,2.5c2.6,4,1.5,9.3-2.5,11.8L59.3,62.9
			l31,20.2c0,0,5.6,3.2,6.7,8.6c1.5,7.5-3.6,13.7-3.6,13.7L46.6,75z"/>
		<path class="st0" d="M87.2,54.1c-2,0-3.5,0.6-4.9,1.6l-10.5,6.9l10.5,6.9c1.4,0.9,2.9,1.6,4.9,1.6c4.7,0,8.4-3.8,8.4-8.4
			C95.7,57.8,91.9,54.1,87.2,54.1"/>
		<path class="st1" d="M46.5,129.6c2,0,3.5-0.6,4.9-1.6l10.5-6.9l-10.5-6.9c-1.4-0.9-2.9-1.6-4.9-1.6c-4.7,0-8.4,3.8-8.4,8.4
			C38.1,125.8,41.8,129.6,46.5,129.6"/>
	</g>
	<g>
		<path class="st2" d="M148.8,120.5c3.7,0,7.1-1,9.7-3.3v5.1c-3,2-6.5,2.9-10.2,2.9c-9.4,0-15.9-6.5-15.9-15.9
			c0-9.3,6.7-15.8,16-15.8c3.7,0,7.1,1.1,9.8,3.1v5.6c-2.4-2.6-5.8-4-9.5-4c-6.5,0-11.1,4.5-11.1,11
			C137.6,115.9,142.3,120.5,148.8,120.5"/>
		<path class="st2" d="M169.1,124.7h-5V84.4l5,3.1v11.8c2.3-3.5,6-5.8,10.6-5.8c7.7,0,11.8,5.6,11.8,13.2v18h-5.1v-17.1
			c0-6-2.6-9.1-7.9-9.1c-5.6,0-9.4,4.8-9.4,10.9L169.1,124.7L169.1,124.7z"/>
		<path class="st2" d="M222.7,119.5c-2.5,3.6-6.5,5.8-11.2,5.8c-8.9,0-15.3-6.6-15.3-15.7c0-9.2,6.4-16,15.3-16
			c4.8,0,8.7,2.2,11.2,5.9v-5.4h5.1v30.6h-5.1V119.5z M201.4,109.5c0,6.3,4.4,11,10.6,11c6.3,0,10.7-4.7,10.7-11
			c0-6.5-4.5-11.2-10.7-11.2C205.8,98.3,201.4,103.1,201.4,109.5"/>
		<path class="st2" d="M240.7,124.7h-5V94.1h5v6.5c2.4-4.5,6.3-7.1,11.2-7.1v5.8c-6.1-0.9-11.2,3.2-11.2,10.8L240.7,124.7
			L240.7,124.7z"/>
		<path class="st2" d="M303.3,111.4h-24.1c0.7,5.5,5.1,9.2,11.2,9.2c3.9,0,7.7-1.1,10.9-3.4v4.8c-3.3,2.2-7,3.3-10.9,3.3
			c-9.6,0-16.5-6.2-16.5-15.6c0-9.2,5.8-16.1,15.1-16.1c8.8,0,14.6,6.5,14.6,15.3C303.5,109.7,303.5,110.6,303.3,111.4 M279.3,107.3
			h18.9c-0.5-5.2-3.8-9.1-9.2-9.1C283.4,98.2,280.1,102.1,279.3,107.3"/>
		<path class="st2" d="M314.1,124.7h-5V94.1h5v6.5c2.4-4.5,6.3-7.1,11.2-7.1v5.8c-6.1-0.9-11.2,3.2-11.2,10.8V124.7z"/>
		<path class="st2" d="M355.1,111.4H331c0.7,5.5,5.1,9.2,11.2,9.2c3.9,0,7.7-1.1,10.9-3.4v4.8c-3.3,2.2-7,3.3-10.9,3.3
			c-9.6,0-16.5-6.2-16.5-15.6c0-9.2,5.8-16.1,15.1-16.1c8.8,0,14.6,6.5,14.6,15.3C355.3,109.7,355.2,110.6,355.1,111.4 M331,107.3
			h18.9c-0.5-5.2-3.8-9.1-9.2-9.1C335.2,98.2,331.8,102.1,331,107.3"/>
		<path class="st2" d="M385.2,119.5c-2.5,3.7-6.5,5.9-11.2,5.9c-8.9,0-15.3-6.6-15.3-15.7c0-9.2,6.4-16,15.3-16
			c4.8,0,8.7,2.3,11.2,6V84.4l5.1,3.1v37.2h-5.1V119.5z M363.9,109.6c0,6.3,4.4,11,10.6,11c6.3,0,10.7-4.7,10.7-11
			c0-6.5-4.5-11.2-10.7-11.2S363.9,103.1,363.9,109.6"/>
		<path class="st2" d="M260.6,114.5c0,4.3,2.6,6,5.9,6c2.5,0,5-0.7,7.1-2.2v4.9c-2.1,1.6-5,2.2-7.6,2.2c-6.5,0-10.5-2.9-10.5-11.2
			V84.4l5,3.1v27H260.6z"/>
		<path class="st2" d="M268.7,93.7c-1.3-0.8-2.9-0.9-4.2,0c-2.4,1.5-2.4,5,0,6.5l0.1,0.1c1.3,0.8,2.9,0.8,4.2,0l5-3.2L268.7,93.7z"
			/>
		<path class="st2" d="M142.9,76.4c3.6,0,6.2-1.6,6.2-4.3c0-1.7-0.9-3-3.2-3.9l-7.3-2.9c-3.7-1.6-5.8-3.7-5.8-7.7
			c0-5.3,4.3-8.7,10.5-8.7c3.6,0,6.9,1,9.3,2.8V57c-2.8-2.5-6.2-3.9-9.2-3.9c-3.2,0-5.5,1.5-5.5,4c0,1.9,0.9,3,3.3,3.9l7.3,2.9
			c3.9,1.7,5.7,4,5.7,7.3c0,5.8-4.7,9.4-11.4,9.4c-4,0-7.7-1.1-10.4-3.1V72C135.7,75,139.3,76.4,142.9,76.4"/>
		<path class="st2" d="M163.7,69.7c0,4.3,2.6,6,5.9,6c2.5,0,5-0.7,7.1-2.2v4.9c-2.1,1.6-5,2.2-7.6,2.2c-6.5,0-10.5-2.9-10.5-11.2
			V42.7l5-3.1v30.1H163.7z"/>
		<path class="st2" d="M204.9,74.8c-2.5,3.6-6.5,5.8-11.2,5.8c-8.9,0-15.3-6.6-15.3-15.7c0-9.2,6.4-16,15.3-16
			c4.8,0,8.7,2.2,11.2,5.9v-5.3h5.1v30.6h-5.1V74.8z M183.5,64.8c0,6.3,4.4,11,10.6,11c6.3,0,10.7-4.7,10.7-11
			c0-6.5-4.5-11.2-10.7-11.2C187.9,53.6,183.5,58.3,183.5,64.8"/>
		<path class="st2" d="M222.8,80h-5V49.4h5v5.2c2.3-3.5,6-5.8,10.6-5.8c7.7,0,11.8,5.6,11.8,13.1v18h-5.1v-17c0-6-2.6-9.1-7.9-9.1
			c-5.6,0-9.4,4.8-9.4,10.9L222.8,80L222.8,80z"/>
		<path class="st2" d="M276.4,74.6c-2.5,3.7-6.5,5.9-11.2,5.9c-8.9,0-15.3-6.6-15.3-15.7c0-9.2,6.4-16,15.3-16c4.8,0,8.7,2.3,11.2,6
			V42.7l5.1-3.1V80h-5.1V74.6z M255.1,64.8c0,6.3,4.4,11,10.6,11c6.3,0,10.7-4.7,10.7-11c0-6.5-4.5-11.2-10.7-11.2
			C259.5,53.6,255.1,58.3,255.1,64.8"/>
		<path class="st2" d="M369.5,74.6c-2.5,3.7-6.5,5.9-11.2,5.9c-8.9,0-15.3-6.6-15.3-15.7c0-9.2,6.4-16,15.3-16c4.8,0,8.7,2.3,11.2,6
			V42.7l5.1-3.1V80h-5.1V74.6z M348.1,64.8c0,6.3,4.4,11,10.6,11c6.3,0,10.7-4.7,10.7-11c0-6.5-4.5-11.2-10.7-11.2
			C352.5,53.6,348.1,58.3,348.1,64.8"/>
		<path class="st2" d="M313.5,74.8c-2.5,3.6-6.5,5.8-11.2,5.8c-8.9,0-15.3-6.6-15.3-15.7c0-9.2,6.4-16,15.3-16
			c4.8,0,8.7,2.2,11.2,5.9v-5.3h5.1v30.6h-5.1V74.8z M292.2,64.8c0,6.3,4.4,11,10.6,11c6.3,0,10.7-4.7,10.7-11
			c0-6.5-4.5-11.2-10.7-11.2C296.6,53.6,292.2,58.3,292.2,64.8"/>
		<path class="st2" d="M331.4,80h-5V49.4h5v6.5c2.4-4.5,6.3-7.1,11.2-7.1v5.8c-6.1-0.9-11.2,3.2-11.2,10.8V80z"/>
		<path class="st2" d="M170.8,55.9c1.3,0.8,2.9,0.9,4.2,0c2.4-1.5,2.4-5,0-6.5l-0.1-0.1c-1.3-0.8-2.9-0.8-4.2,0l-5,3.2L170.8,55.9z"
			/>
	</g>
</g>
</svg>
